<svg width="72" height="84" viewBox="0 0 72 84" fill="none" xmlns="http://www.w3.org/2000/svg">
<g clip-path="url(#clip0)">
<path d="M26.925 36.75C29.4375 32.5312 32.1938 28.4438 35.175 24.525C35.475 24.1313 35.7563 23.7563 36 23.4375C39.2812 27.6938 42.3187 32.1375 45.075 36.75C46.9875 39.7313 48.4125 42.9938 49.3312 46.425C49.4437 46.95 49.5 47.475 49.5 48C49.5 55.4625 43.4625 61.5 36 61.5C28.5375 61.5 22.5 55.4625 22.5 48C22.5 46.35 23.2688 43.0688 26.925 36.75ZM36 58.5C36.825 58.5 37.5 57.825 37.5 57C37.5 56.175 36.825 55.5 36 55.5C31.8563 55.5 28.5 52.1437 28.5 48C28.5 47.9813 28.6125 45.8063 32.1188 39.7688C32.4188 39.3 32.4563 38.7 32.175 38.2125C31.9125 37.725 31.3875 37.425 30.825 37.4437C30.2625 37.4625 29.7562 37.7813 29.5125 38.2688C25.7812 44.6813 25.4812 47.3438 25.4812 48C25.5 53.7938 30.2062 58.5 36 58.5Z" fill="#E6E6E6"/>
<path d="M67.5 75H4.5C2.00625 75 0 77.0062 0 79.5C0 81.9938 2.00625 84 4.5 84H67.5C69.9938 84 72 81.9938 72 79.5C72 77.0062 69.9938 75 67.5 75Z" fill="#E6E6E6"/>
<path d="M4.5 9H67.5C69.9938 9 72 6.99375 72 4.5C72 2.00625 69.9938 0 67.5 0H4.5C2.00625 0 0 2.00625 0 4.5C0 6.99375 2.00625 9 4.5 9Z" fill="#E6E6E6"/>
<path d="M48.4875 58.7626C48.3 58.9688 48.1125 59.1938 47.925 59.3813C47.7563 59.5501 47.6063 59.7188 47.4375 59.8688C47.2313 60.0563 47.025 60.2626 46.8188 60.4313C46.65 60.5813 46.4625 60.7313 46.2938 60.8813C46.0688 61.0501 45.8438 61.2188 45.6188 61.3876C45.4313 61.5188 45.2438 61.6501 45.0563 61.7813C44.8125 61.9313 44.5688 62.0813 44.325 62.2313C44.1188 62.3438 43.9313 62.4751 43.725 62.5688C43.4625 62.7001 43.2 62.8313 42.9375 62.9438C42.7313 63.0376 42.525 63.1313 42.3188 63.2251C42.0375 63.3376 41.7563 63.4313 41.475 63.5438C41.2688 63.6188 41.0625 63.6938 40.8375 63.7688C40.5375 63.8626 40.2188 63.9376 39.9188 64.0126C39.7125 64.0688 39.5063 64.1251 39.3 64.1626C38.9438 64.2376 38.5875 64.2751 38.25 64.3313C38.0625 64.3501 37.8938 64.3876 37.7063 64.4063C37.1625 64.4626 36.6188 64.4813 36.075 64.4813C35.5125 64.4813 34.9688 64.4438 34.4438 64.4063C34.2563 64.3876 34.0875 64.3501 33.9 64.3313C33.5438 64.2938 33.1875 64.2376 32.85 64.1626C32.6438 64.1251 32.4375 64.0688 32.2313 64.0126C31.9313 63.9376 31.6125 63.8626 31.3125 63.7688C31.0875 63.7126 30.8813 63.6188 30.675 63.5438C30.3938 63.4501 30.1125 63.3563 29.8313 63.2251C29.625 63.1313 29.4188 63.0376 29.2125 62.9438C28.95 62.8126 28.6875 62.7001 28.425 62.5688C28.2188 62.4563 28.0125 62.3438 27.825 62.2313C27.5813 62.0813 27.3375 61.9501 27.0938 61.7813C26.9063 61.6501 26.7188 61.5188 26.5313 61.3876C26.3063 61.2188 26.0813 61.0501 25.8563 60.8813C25.6688 60.7313 25.5 60.5813 25.3313 60.4313C25.125 60.2438 24.9 60.0563 24.7125 59.8688C24.5438 59.7001 24.375 59.5501 24.225 59.3813C24.0375 59.1751 23.85 58.9688 23.6625 58.7626C23.5125 58.5938 23.3625 58.4063 23.2125 58.2188C23.0438 57.9938 22.875 57.7688 22.7063 57.5438C22.575 57.3563 22.4438 57.1688 22.3125 56.9626C22.1625 56.7188 22.0125 56.4751 21.8625 56.2313C21.75 56.0251 21.6375 55.8376 21.525 55.6313C21.3938 55.3688 21.2625 55.1063 21.15 54.8438C21.0563 54.6376 20.9625 54.4313 20.8688 54.2063C20.7563 53.9251 20.6625 53.6438 20.5688 53.3813C20.4938 53.1563 20.4188 52.9501 20.3438 52.7251C20.25 52.4251 20.1938 52.1251 20.1188 51.8251C20.0625 51.6001 20.0063 51.3938 19.9688 51.1688C19.9125 50.8501 19.8563 50.5313 19.8188 50.1938C19.8 49.9876 19.7438 49.7813 19.725 49.5751C19.725 49.5376 19.7063 49.5188 19.7063 49.4813H6V71.9813H66V49.5001H52.425C52.425 49.5376 52.4063 49.5563 52.4063 49.5938C52.3875 49.8001 52.35 50.0063 52.3125 50.2126C52.275 50.5313 52.2188 50.8688 52.1625 51.1876C52.125 51.4126 52.0688 51.6188 52.0125 51.8438C51.9375 52.1438 51.8625 52.4438 51.7875 52.7438C51.7125 52.9688 51.6375 53.1751 51.5625 53.4001C51.4688 53.6813 51.375 53.9626 51.2625 54.2251C51.1688 54.4313 51.075 54.6563 50.9813 54.8626C50.8688 55.1251 50.7375 55.3876 50.6063 55.6501C50.4938 55.8563 50.3813 56.0626 50.2688 56.2501C50.1188 56.4938 49.9875 56.7376 49.8188 56.9813C49.6875 57.1876 49.5563 57.3751 49.425 57.5626C49.2563 57.7876 49.0875 58.0126 48.9188 58.2376C48.7875 58.4063 48.6375 58.5938 48.4875 58.7626Z" fill="#E6E6E6"/>
<path d="M4.5 46.5H19.6125C19.6313 46.4063 19.65 46.3125 19.6688 46.2188C19.7437 45.7875 19.8375 45.3375 19.9688 44.8688C20.0063 44.7188 20.0437 44.5688 20.0812 44.4188C20.25 43.8188 20.4562 43.1813 20.7188 42.525C20.7375 42.45 20.775 42.375 20.8125 42.3C21.0562 41.7 21.3188 41.0625 21.6188 40.4063C21.7125 40.2 21.8062 39.9938 21.9188 39.7875C22.2188 39.15 22.5562 38.4938 22.9125 37.8187C22.9688 37.7062 23.0063 37.6125 23.0625 37.5H4.5C2.00625 37.5 0 39.5063 0 42C0 44.4938 2.00625 46.5 4.5 46.5Z" fill="#E6E6E6"/>
<path d="M67.5002 37.5H48.9189C48.9752 37.5937 49.0127 37.6875 49.0689 37.7812C49.4439 38.475 49.7627 39.15 50.0814 39.7875C50.1752 39.9937 50.2689 40.2 50.3627 40.4062C50.6627 41.0625 50.9439 41.7 51.1877 42.3187C51.2252 42.3937 51.2439 42.4687 51.2814 42.5437C51.5439 43.2187 51.7502 43.8375 51.9189 44.4375C51.9564 44.5875 51.9939 44.7375 52.0314 44.8875C52.1627 45.3562 52.2564 45.8062 52.3314 46.2375C52.3502 46.3312 52.3689 46.425 52.3877 46.5187H67.5002C69.994 46.5187 72.0002 44.5125 72.0002 42.0187C72.0002 39.525 69.994 37.5 67.5002 37.5Z" fill="#E6E6E6"/>
<path d="M66 12H6V34.5H24.7875C24.8625 34.3687 24.9375 34.2563 25.0125 34.125C25.1438 33.9188 25.275 33.6938 25.4063 33.4875L25.875 32.7375C26.0063 32.5313 26.1375 32.325 26.2688 32.1188C26.4375 31.8563 26.5875 31.6125 26.7563 31.3688C26.8875 31.1813 27 30.975 27.1313 30.7875C27.3 30.5437 27.45 30.3 27.6188 30.0375C27.75 29.85 27.8625 29.6625 27.9938 29.475L28.4813 28.7625L28.8563 28.2188L29.325 27.525C29.4375 27.3563 29.5688 27.1875 29.6813 27.0188C29.8313 26.7938 29.9813 26.5875 30.1313 26.3625L30.4875 25.8562L30.9188 25.275L31.275 24.7875C31.4063 24.6 31.5375 24.4312 31.65 24.2625L31.9875 23.7938L32.325 23.3438L32.6438 22.9125L32.9063 22.5563L33.2438 22.1063L33.4313 21.8625L33.75 21.45L33.9188 21.2438L34.1813 20.9062L34.2563 20.8125C34.575 20.4 34.8 20.1375 34.8375 20.0812C35.1375 19.7437 35.55 19.5563 36 19.5563C36.45 19.5563 36.8813 19.7437 37.1625 20.0812C37.2 20.1375 37.4063 20.4 37.7438 20.8125L37.8188 20.9062L38.0625 21.225L38.25 21.45L38.5875 21.9L38.7375 22.1063L39.1125 22.5938C39.1875 22.7063 39.2625 22.8 39.3375 22.9125C39.45 23.0625 39.5813 23.2312 39.6938 23.3812L40.0125 23.7938L40.3875 24.3C40.5 24.45 40.6125 24.6187 40.7438 24.7875C40.8563 24.9562 41.0063 25.1438 41.1375 25.3313C41.2688 25.5188 41.3813 25.6687 41.5125 25.8562L41.925 26.4187L42.3375 27C42.4688 27.1875 42.6188 27.3937 42.75 27.6C42.8813 27.8062 43.0313 27.9937 43.1625 28.2C43.3125 28.4062 43.4438 28.6125 43.5938 28.8187L44.025 29.4563L44.4563 30.1125L44.8688 30.75C45.0188 30.975 45.1688 31.2188 45.3188 31.4437C45.45 31.65 45.6 31.875 45.7313 32.0813C45.8813 32.325 46.0313 32.5688 46.1813 32.8125L46.575 33.45C46.725 33.7125 46.875 33.9562 47.0438 34.2188C47.1 34.3125 47.175 34.425 47.2313 34.5188H66V12Z" fill="#E6E6E6"/>
</g>
<defs>
<clipPath id="clip0">
<rect width="72" height="84" fill="white"/>
</clipPath>
</defs>
</svg>
